# Blender v2.91.0 OBJ File: 'icg midterm.blend'
# www.blender.org
mtllib Snowball.mtl
o snowball_Icosphere
v -3.934316 0.119564 -0.297017
v -3.298380 0.605371 0.165012
v -4.177217 0.605370 0.450569
v -4.720375 0.605374 -0.297017
v -4.177217 0.605370 -1.044603
v -3.298380 0.605371 -0.759047
v -3.691415 1.391441 0.450569
v -4.570252 1.391441 0.165012
v -4.570252 1.391441 -0.759047
v -3.691415 1.391441 -1.044603
v -3.148257 1.391438 -0.297017
v -3.934316 1.877248 -0.297017
v -4.077089 0.250815 0.142399
v -3.560525 0.250816 -0.025445
v -3.703296 0.536366 0.413976
v -3.186731 0.536367 -0.297017
v -3.560525 0.250816 -0.568590
v -4.396349 0.250818 -0.297017
v -4.539126 0.536367 0.142401
v -4.077089 0.250815 -0.736434
v -4.539126 0.536367 -0.736436
v -3.703296 0.536366 -1.008011
v -3.098487 0.998406 -0.025444
v -3.098487 0.998406 -0.568591
v -3.934316 0.998406 0.581824
v -3.417746 0.998406 0.413980
v -4.770145 0.998406 -0.025444
v -4.450887 0.998406 0.413980
v -4.450887 0.998406 -1.008015
v -4.770145 0.998406 -0.568591
v -3.417746 0.998406 -1.008015
v -3.934316 0.998406 -1.175859
v -3.329507 1.460445 0.142401
v -4.165336 1.460446 0.413976
v -4.681901 1.460445 -0.297017
v -4.165336 1.460446 -1.008011
v -3.329507 1.460445 -0.736436
v -3.791543 1.745996 0.142399
v -3.472283 1.745994 -0.297017
v -4.308107 1.745996 -0.025445
v -4.308107 1.745996 -0.568590
v -3.791543 1.745996 -0.736434
vt 0.813570 0.334995
vt 0.769125 0.411975
vt 0.858014 0.411975
vt 0.724681 0.488956
vt 0.680237 0.411975
vt 0.635793 0.488956
vt 0.102463 0.334995
vt 0.058019 0.411975
vt 0.146907 0.411975
vt 0.280239 0.334995
vt 0.235795 0.411975
vt 0.324684 0.411975
vt 0.458016 0.334995
vt 0.413572 0.411975
vt 0.502460 0.411975
vt 0.680237 0.565936
vt 0.902458 0.488956
vt 0.813570 0.488956
vt 0.858014 0.565936
vt 0.191351 0.488956
vt 0.102463 0.488956
vt 0.146907 0.565936
vt 0.369128 0.488956
vt 0.280239 0.488956
vt 0.324684 0.565936
vt 0.546905 0.488956
vt 0.458016 0.488956
vt 0.502460 0.565936
vt 0.769125 0.565936
vt 0.946903 0.565936
vt 0.235795 0.565936
vt 0.413572 0.565936
vt 0.591349 0.565936
vt 0.813570 0.642916
vt 0.724681 0.642916
vt 0.769125 0.719897
vt 0.991347 0.642916
vt 0.902458 0.642916
vt 0.946903 0.719897
vt 0.280239 0.642916
vt 0.191351 0.642916
vt 0.235795 0.719897
vt 0.458016 0.642916
vt 0.369128 0.642916
vt 0.413572 0.719897
vt 0.635793 0.642916
vt 0.546905 0.642916
vt 0.591349 0.719897
vt 0.502460 0.719897
vt 0.546905 0.796877
vt 0.324684 0.719897
vt 0.369128 0.796877
vt 0.146907 0.719897
vt 0.191351 0.796877
vt 0.102463 0.642916
vt 0.858014 0.719897
vt 0.902458 0.796877
vt 0.680237 0.719897
vt 0.724681 0.796877
vt 0.058019 0.565936
vt 0.013574 0.488956
vt 0.591349 0.411975
vt 0.635793 0.334995
vn 0.1024 -0.9435 0.3151
vn 0.7002 -0.6617 0.2680
vn -0.2680 -0.9435 0.1947
vn -0.2680 -0.9435 -0.1947
vn 0.1024 -0.9435 -0.3151
vn 0.9050 -0.3304 0.2680
vn 0.0247 -0.3304 0.9435
vn -0.8897 -0.3304 0.3151
vn -0.5746 -0.3304 -0.7488
vn 0.5346 -0.3304 -0.7779
vn 0.8026 -0.1256 0.5831
vn -0.3066 -0.1256 0.9435
vn -0.9921 -0.1256 0.0000
vn -0.3066 -0.1256 -0.9435
vn 0.8026 -0.1256 -0.5831
vn 0.4089 0.6617 0.6284
vn -0.4713 0.6617 0.5831
vn -0.7002 0.6617 -0.2680
vn 0.0385 0.6617 -0.7488
vn 0.7240 0.6617 -0.1947
vn 0.2680 0.9435 -0.1947
vn 0.4911 0.7947 -0.3568
vn 0.4089 0.6617 -0.6284
vn -0.1024 0.9435 -0.3151
vn -0.1876 0.7947 -0.5773
vn -0.4713 0.6617 -0.5831
vn -0.3313 0.9435 0.0000
vn -0.6071 0.7947 0.0000
vn -0.7002 0.6617 0.2680
vn -0.1024 0.9435 0.3151
vn -0.1876 0.7947 0.5773
vn 0.0385 0.6617 0.7488
vn 0.2680 0.9435 0.1947
vn 0.4911 0.7947 0.3568
vn 0.7240 0.6617 0.1947
vn 0.8897 0.3304 -0.3151
vn 0.7947 0.1876 -0.5773
vn 0.5746 0.3304 -0.7488
vn -0.0247 0.3304 -0.9435
vn -0.3035 0.1876 -0.9342
vn -0.5346 0.3304 -0.7779
vn -0.9050 0.3304 -0.2680
vn -0.9822 0.1876 0.0000
vn -0.9050 0.3304 0.2680
vn -0.5346 0.3304 0.7779
vn -0.3035 0.1876 0.9342
vn -0.0247 0.3304 0.9435
vn 0.5746 0.3304 0.7488
vn 0.7947 0.1876 0.5773
vn 0.8897 0.3304 0.3151
vn 0.3066 0.1256 -0.9435
vn 0.3035 -0.1876 -0.9342
vn 0.0247 -0.3304 -0.9435
vn -0.8026 0.1256 -0.5831
vn -0.7947 -0.1876 -0.5773
vn -0.8897 -0.3304 -0.3151
vn -0.8026 0.1256 0.5831
vn -0.7947 -0.1876 0.5773
vn -0.5746 -0.3304 0.7488
vn 0.3066 0.1256 0.9435
vn 0.3035 -0.1876 0.9342
vn 0.5346 -0.3304 0.7779
vn 0.9921 0.1256 0.0000
vn 0.9822 -0.1876 0.0000
vn 0.9050 -0.3304 -0.2680
vn 0.4713 -0.6617 -0.5831
vn 0.1876 -0.7947 -0.5773
vn -0.0385 -0.6617 -0.7488
vn -0.4089 -0.6617 -0.6284
vn -0.4911 -0.7947 -0.3568
vn -0.7240 -0.6617 -0.1947
vn -0.7240 -0.6617 0.1947
vn -0.4911 -0.7947 0.3568
vn -0.4089 -0.6617 0.6284
vn 0.7002 -0.6617 -0.2680
vn 0.6071 -0.7947 0.0000
vn 0.3313 -0.9435 0.0000
vn -0.0385 -0.6617 0.7488
vn 0.1876 -0.7947 0.5773
vn 0.4713 -0.6617 0.5831
usemtl None
s off
f 1/1/1 14/2/1 13/3/1
f 2/4/2 14/5/2 16/6/2
f 1/7/3 13/8/3 18/9/3
f 1/10/4 18/11/4 20/12/4
f 1/13/5 20/14/5 17/15/5
f 2/4/6 16/6/6 23/16/6
f 3/17/7 15/18/7 25/19/7
f 4/20/8 19/21/8 27/22/8
f 5/23/9 21/24/9 29/25/9
f 6/26/10 22/27/10 31/28/10
f 2/4/11 23/16/11 26/29/11
f 3/17/12 25/19/12 28/30/12
f 4/20/13 27/22/13 30/31/13
f 5/23/14 29/25/14 32/32/14
f 6/26/15 31/28/15 24/33/15
f 7/34/16 33/35/16 38/36/16
f 8/37/17 34/38/17 40/39/17
f 9/40/18 35/41/18 41/42/18
f 10/43/19 36/44/19 42/45/19
f 11/46/20 37/47/20 39/48/20
f 39/48/21 42/49/21 12/50/21
f 39/48/22 37/47/22 42/49/22
f 37/47/23 10/43/23 42/49/23
f 42/45/24 41/51/24 12/52/24
f 42/45/25 36/44/25 41/51/25
f 36/44/26 9/40/26 41/51/26
f 41/42/27 40/53/27 12/54/27
f 41/42/28 35/41/28 40/53/28
f 35/41/29 8/55/29 40/53/29
f 40/39/30 38/56/30 12/57/30
f 40/39/31 34/38/31 38/56/31
f 34/38/32 7/34/32 38/56/32
f 38/36/33 39/58/33 12/59/33
f 38/36/34 33/35/34 39/58/34
f 33/35/35 11/46/35 39/58/35
f 24/33/36 37/47/36 11/46/36
f 24/33/37 31/28/37 37/47/37
f 31/28/38 10/43/38 37/47/38
f 32/32/39 36/44/39 10/43/39
f 32/32/40 29/25/40 36/44/40
f 29/25/41 9/40/41 36/44/41
f 30/31/42 35/41/42 9/40/42
f 30/31/43 27/22/43 35/41/43
f 27/22/44 8/55/44 35/41/44
f 28/30/45 34/38/45 8/37/45
f 28/30/46 25/19/46 34/38/46
f 25/19/47 7/34/47 34/38/47
f 26/29/48 33/35/48 7/34/48
f 26/29/49 23/16/49 33/35/49
f 23/16/50 11/46/50 33/35/50
f 31/28/51 32/32/51 10/43/51
f 31/28/52 22/27/52 32/32/52
f 22/27/53 5/23/53 32/32/53
f 29/25/54 30/31/54 9/40/54
f 29/25/55 21/24/55 30/31/55
f 21/24/56 4/20/56 30/31/56
f 27/22/57 28/60/57 8/55/57
f 27/22/58 19/21/58 28/60/58
f 19/21/59 3/61/59 28/60/59
f 25/19/60 26/29/60 7/34/60
f 25/19/61 15/18/61 26/29/61
f 15/18/62 2/4/62 26/29/62
f 23/16/63 24/33/63 11/46/63
f 23/16/64 16/6/64 24/33/64
f 16/6/65 6/26/65 24/33/65
f 17/15/66 22/27/66 6/26/66
f 17/15/67 20/14/67 22/27/67
f 20/14/68 5/23/68 22/27/68
f 20/12/69 21/24/69 5/23/69
f 20/12/70 18/11/70 21/24/70
f 18/11/71 4/20/71 21/24/71
f 18/9/72 19/21/72 4/20/72
f 18/9/73 13/8/73 19/21/73
f 13/8/74 3/61/74 19/21/74
f 16/6/75 17/62/75 6/26/75
f 16/6/76 14/5/76 17/62/76
f 14/5/77 1/63/77 17/62/77
f 13/3/78 15/18/78 3/17/78
f 13/3/79 14/2/79 15/18/79
f 14/2/80 2/4/80 15/18/80
