# Blender v2.91.0 OBJ File: 'Assignment 1 assets.blend'
# www.blender.org
mtllib file.mtl
o File_Cube
v 2.197592 -0.037595 3.267071
v 2.197592 -0.056960 3.267071
v 2.216668 -0.027280 4.150155
v 2.216668 -0.067276 4.150155
v 2.026359 -0.037595 3.267071
v 2.026359 -0.056960 3.267071
v 2.007283 -0.027280 4.150155
v 2.007283 -0.067276 4.150155
v 2.216668 -0.067276 3.267071
v 2.007283 -0.067276 3.267071
v 2.216668 -0.027280 3.267071
v 2.007283 -0.027280 3.267071
v 2.197592 -0.056960 1.655241
v 2.026359 -0.056960 1.655241
v 2.197592 -0.037595 1.655241
v 2.026359 -0.037595 1.655241
vt 0.625000 0.500000
vt 0.875000 0.500000
vt 0.875000 0.750000
vt 0.625000 0.750000
vt 0.375000 0.750000
vt 0.625000 1.000000
vt 0.375000 1.000000
vt 0.375000 0.000000
vt 0.625000 0.000000
vt 0.625000 0.250000
vt 0.375000 0.250000
vt 0.125000 0.500000
vt 0.375000 0.500000
vt 0.125000 0.750000
vt 0.397776 0.272776
vt 0.602224 0.272776
vt 0.602224 0.272776
vt 0.397776 0.272776
vt 0.397776 0.477224
vt 0.602224 0.477224
vt 0.602224 0.477224
vt 0.397776 0.477224
vn 0.0000 1.0000 0.0000
vn 0.0000 0.0000 1.0000
vn -1.0000 0.0000 0.0000
vn 0.0000 -1.0000 0.0000
vn 1.0000 0.0000 0.0000
vn 0.0000 0.0000 -1.0000
usemtl Material
s off
f 11/1/1 12/2/1 7/3/1 3/4/1
f 4/5/2 3/4/2 7/6/2 8/7/2
f 8/8/3 7/9/3 12/10/3 10/11/3
f 10/12/4 9/13/4 4/5/4 8/14/4
f 9/13/5 11/1/5 3/4/5 4/5/5
f 6/15/3 5/16/3 16/17/3 14/18/3
f 6/15/6 2/19/6 9/13/6 10/11/6
f 2/19/6 1/20/6 11/1/6 9/13/6
f 5/16/6 6/15/6 10/11/6 12/10/6
f 1/20/6 5/16/6 12/10/6 11/1/6
f 14/18/6 16/17/6 15/21/6 13/22/6
f 2/19/4 6/15/4 14/18/4 13/22/4
f 5/16/1 1/20/1 15/21/1 16/17/1
f 1/20/5 2/19/5 13/22/5 15/21/5
