# Blender v2.91.0 OBJ File: 'Assignment 1 assets.blend'
# www.blender.org
mtllib nippers.mtl
o Nippers_Cube.001
v 3.202558 -0.003098 3.378697
v 3.344491 -0.091457 2.817814
v 3.344491 -0.003098 2.817814
v 3.415287 -0.091457 2.817814
v 3.415287 -0.003098 2.817814
v 3.415287 -0.091457 3.142165
v 3.415287 -0.003098 3.142165
v 3.304628 -0.003098 3.260432
v 3.304628 -0.091457 3.260432
v 3.304628 -0.003098 3.954333
v 3.304628 -0.091457 3.954333
v 3.202558 -0.003098 4.072598
v 3.202558 -0.091457 4.072598
v 3.483241 -0.091457 2.817814
v 3.483241 -0.003098 2.817814
v 3.483241 -0.091457 3.142165
v 3.483241 -0.003098 3.142165
v 3.202558 -0.091457 3.378697
v 3.447331 -0.024600 2.632233
v 3.415287 -0.047278 3.142165
v 3.426641 -0.077730 2.632233
v 3.280906 -0.047278 2.806647
v 3.344491 -0.056228 2.806647
v 3.344491 -0.003098 2.806647
v 3.465872 -0.003098 2.806647
v 3.415287 -0.003098 2.806647
v 3.415287 -0.056228 2.806647
v 3.445182 -0.056228 2.806647
v 3.445182 -0.047278 2.806647
v 3.307768 -0.047278 2.817814
v 3.304628 -0.047278 3.260432
v 3.202558 -0.047278 4.072598
v 3.304628 -0.047278 3.954333
v 3.483241 -0.047278 3.142165
v 3.483241 -0.047278 2.817814
v 3.202558 -0.047278 3.378697
v 3.426641 -0.068780 2.632233
v 3.462027 -0.091457 2.817814
v 3.462027 -0.003098 3.142165
v 3.440579 -0.003098 2.806647
v 3.462027 -0.003098 2.817814
v 3.462027 -0.091457 3.142165
v 3.430234 -0.056228 2.806647
v 3.462027 -0.047278 3.142165
v 3.749508 -0.003098 3.378697
v 3.607575 -0.091457 2.817814
v 3.607575 -0.003098 2.817814
v 3.536780 -0.091457 2.817814
v 3.536780 -0.003098 2.817814
v 3.536780 -0.091457 3.142165
v 3.536780 -0.003098 3.142165
v 3.647439 -0.003098 3.260432
v 3.647439 -0.091457 3.260432
v 3.647439 -0.003098 3.954333
v 3.647439 -0.091457 3.954333
v 3.749508 -0.003098 4.072598
v 3.749508 -0.091457 4.072598
v 3.468825 -0.091457 2.817814
v 3.468825 -0.003098 2.817814
v 3.468825 -0.091457 3.142165
v 3.468825 -0.003098 3.142165
v 3.749508 -0.091457 3.378697
v 3.504735 -0.024600 2.632233
v 3.536780 -0.047278 3.142165
v 3.525425 -0.077730 2.632233
v 3.671161 -0.047278 2.806647
v 3.607575 -0.056228 2.806647
v 3.607575 -0.003098 2.806647
v 3.486195 -0.003098 2.806647
v 3.536780 -0.003098 2.806647
v 3.536780 -0.056228 2.806647
v 3.506885 -0.056228 2.806647
v 3.506885 -0.047278 2.806647
v 3.644299 -0.047278 2.817814
v 3.647439 -0.047278 3.260432
v 3.749508 -0.047278 4.072598
v 3.647439 -0.047278 3.954333
v 3.468825 -0.047278 3.142165
v 3.468825 -0.047278 2.817814
v 3.749508 -0.047278 3.378697
v 3.525425 -0.068780 2.632233
v 3.490040 -0.091457 2.817814
v 3.490040 -0.003098 3.142165
v 3.511487 -0.003098 2.806647
v 3.490040 -0.003098 2.817814
v 3.490040 -0.091457 3.142165
v 3.521832 -0.056228 2.806647
v 3.490040 -0.047278 3.142165
vt 0.791667 0.500000
vt 0.770833 0.500000
vt 0.750000 0.500000
vt 0.791667 0.500000
vt 0.833333 0.500000
vt 0.875000 0.500000
vt 0.875000 0.750000
vt 0.833333 0.750000
vt 0.770833 0.500000
vt 0.791667 0.500000
vt 0.791667 0.750000
vt 0.770833 0.750000
vt 0.208333 0.500000
vt 0.208333 0.750000
vt 0.166667 0.750000
vt 0.500000 0.000000
vt 0.625000 0.000000
vt 0.625000 0.250000
vt 0.500000 0.250000
vt 0.500000 0.895833
vt 0.625000 0.895833
vt 0.625000 0.916667
vt 0.500000 0.916667
vt 0.625000 0.958333
vt 0.500000 0.958333
vt 0.500000 0.875000
vt 0.375000 0.250000
vt 0.750000 0.500000
vt 0.625000 0.875000
vt 0.375000 0.958333
vt 0.500000 0.958333
vt 0.500000 0.000000
vt 0.375000 0.000000
vt 0.375000 0.958333
vt 0.125000 0.750000
vt 0.166667 0.750000
vt 0.125000 0.750000
vt 0.375000 0.000000
vt 0.875000 0.750000
vt 0.833333 0.750000
vt 0.229167 0.500000
vt 0.250000 0.500000
vt 0.250000 0.750000
vt 0.229167 0.750000
vt 0.000000 0.000000
vt 0.000000 0.000000
vt 0.000000 0.000000
vt 0.000000 0.000000
vt 0.000000 0.000000
vt 0.000000 0.000000
vt 0.000000 0.000000
vt 0.000000 0.000000
vt 0.375000 0.250000
vt 0.500000 0.250000
vt 0.375000 0.250000
vt 0.000000 0.000000
vt 0.000000 0.000000
vt 0.875000 0.500000
vt 0.833333 0.500000
vt 0.875000 0.500000
vt 0.208333 0.500000
vt 0.229167 0.500000
vt 0.625000 0.250000
vt 0.625000 0.250000
vt 0.500000 0.250000
vt 0.250000 0.500000
vt 0.250000 0.500000
vt 0.625000 0.958333
vt 0.375000 0.250000
vt 0.000000 0.000000
vt 0.000000 0.000000
vt 0.000000 0.000000
vt 0.625000 0.000000
vt 0.375000 0.875000
vt 0.375000 0.916667
vt 0.375000 0.895833
vt 0.750000 0.750000
vt 0.791667 0.500000
vt 0.791667 0.500000
vt 0.750000 0.500000
vt 0.770833 0.500000
vt 0.833333 0.500000
vt 0.833333 0.750000
vt 0.875000 0.750000
vt 0.875000 0.500000
vt 0.770833 0.500000
vt 0.770833 0.750000
vt 0.791667 0.750000
vt 0.791667 0.500000
vt 0.208333 0.500000
vt 0.166667 0.750000
vt 0.208333 0.750000
vt 0.500000 0.000000
vt 0.500000 0.250000
vt 0.625000 0.250000
vt 0.625000 0.000000
vt 0.500000 0.895833
vt 0.500000 0.916667
vt 0.625000 0.916667
vt 0.625000 0.895833
vt 0.500000 0.958333
vt 0.625000 0.958333
vt 0.500000 0.875000
vt 0.625000 0.875000
vt 0.750000 0.500000
vt 0.375000 0.250000
vt 0.375000 0.958333
vt 0.375000 0.000000
vt 0.500000 0.000000
vt 0.500000 0.958333
vt 0.375000 0.958333
vt 0.125000 0.750000
vt 0.125000 0.750000
vt 0.166667 0.750000
vt 0.375000 0.000000
vt 0.833333 0.750000
vt 0.875000 0.750000
vt 0.229167 0.500000
vt 0.229167 0.750000
vt 0.250000 0.750000
vt 0.250000 0.500000
vt 0.000000 0.000000
vt 0.000000 0.000000
vt 0.000000 0.000000
vt 0.000000 0.000000
vt 0.000000 0.000000
vt 0.000000 0.000000
vt 0.000000 0.000000
vt 0.000000 0.000000
vt 0.375000 0.250000
vt 0.375000 0.250000
vt 0.500000 0.250000
vt 0.000000 0.000000
vt 0.000000 0.000000
vt 0.875000 0.500000
vt 0.875000 0.500000
vt 0.833333 0.500000
vt 0.229167 0.500000
vt 0.208333 0.500000
vt 0.500000 0.250000
vt 0.625000 0.250000
vt 0.625000 0.250000
vt 0.250000 0.500000
vt 0.250000 0.500000
vt 0.625000 0.958333
vt 0.375000 0.250000
vt 0.000000 0.000000
vt 0.000000 0.000000
vt 0.000000 0.000000
vt 0.625000 0.000000
vt 0.375000 0.875000
vt 0.375000 0.916667
vt 0.375000 0.895833
vt 0.750000 0.750000
vn 0.0000 0.9925 -0.1224
vn 0.0000 1.0000 0.0000
vn 0.0000 -1.0000 0.0000
vn -0.9049 0.3761 -0.1994
vn 0.0000 0.0000 1.0000
vn 0.7302 0.0000 0.6832
vn 1.0000 0.0000 0.0000
vn 0.7570 0.0000 0.6534
vn -1.0000 0.0000 0.0000
vn 0.9944 0.0000 -0.1057
vn 0.0000 -0.9925 0.1224
vn -0.3600 -0.6797 -0.6391
vn 0.2816 0.0000 -0.9595
vn 0.0000 -0.3022 -0.9533
vn -0.6203 0.5916 -0.5150
vn -0.5174 0.5874 0.6223
vn -0.2705 -0.9609 -0.0583
vn 0.3723 -0.0872 -0.9240
vn 0.9047 -0.4237 -0.0439
vn -0.9049 -0.3761 -0.1994
vn 0.0000 -0.3022 -0.9532
vn 0.9049 0.3761 -0.1994
vn -0.7302 0.0000 0.6832
vn -0.7570 0.0000 0.6534
vn -0.9944 0.0000 -0.1057
vn 0.3600 -0.6797 -0.6391
vn -0.2816 0.0000 -0.9595
vn 0.6203 0.5916 -0.5150
vn 0.5174 0.5874 0.6223
vn 0.2705 -0.9609 -0.0583
vn -0.3723 -0.0872 -0.9240
vn -0.9047 -0.4237 -0.0439
vn 0.9049 -0.3761 -0.1994
usemtl None
s off
f 26/1/1 40/2/1 25/3/1 19/4/1
f 5/5/2 3/6/2 1/7/2 8/8/2
f 41/9/2 5/10/2 7/11/2 39/12/2
f 4/13/3 6/14/3 9/15/3
f 36/16/4 1/17/4 3/18/4 30/19/4
f 5/5/2 8/8/2 7/11/2
f 44/20/5 39/21/5 7/22/5 20/23/5
f 20/23/6 7/22/6 8/24/6 31/25/6
f 34/26/7 35/27/7 15/28/7 17/29/7
f 11/30/8 33/31/8 32/32/8 13/33/8
f 9/34/7 31/25/7 33/31/7 11/30/7
f 18/35/3 9/15/3 11/36/3 13/37/3
f 36/16/9 18/38/9 13/33/9 32/32/9
f 8/8/2 1/7/2 12/39/2 10/40/2
f 38/41/3 14/42/3 16/43/3 42/44/3
f 9/15/3 18/35/3 2/45/3 4/46/3
f 29/47/10 28/48/10 21/49/10 37/50/10
f 27/51/11 23/52/11 21/49/11
f 2/53/12 30/19/12 22/54/12 23/55/12
f 35/56/13 14/57/13 28/48/13 29/47/13
f 24/58/1 26/59/1 19/60/1
f 4/46/14 2/45/14 23/52/14 27/51/14
f 38/41/14 4/13/14 27/61/14 43/62/14
f 22/54/15 24/63/15 19/64/15 37/65/15
f 3/6/2 5/5/2 26/59/2 24/58/2
f 28/66/11 43/62/11 27/61/11 21/67/11
f 31/25/7 8/24/7 10/68/7 33/31/7
f 41/9/2 15/28/2 25/3/2 40/2/2
f 30/19/16 3/18/16 24/63/16 22/54/16
f 23/55/17 22/54/17 37/65/17 21/69/17
f 15/70/18 35/56/18 29/47/18 25/71/18
f 25/71/19 29/47/19 37/50/19 19/72/19
f 1/17/9 36/16/9 32/32/9 12/73/9
f 10/68/8 12/73/8 32/32/8 33/31/8
f 16/74/7 14/57/7 35/27/7 34/26/7
f 6/75/6 20/23/6 31/25/6 9/34/6
f 42/76/5 44/20/5 20/23/5 6/75/5
f 18/38/20 36/16/20 30/19/20 2/53/20
f 16/74/5 34/26/5 44/20/5 42/76/5
f 5/10/2 41/9/2 40/2/2 26/1/2
f 14/42/21 38/41/21 43/62/21 28/66/21
f 4/13/3 38/41/3 42/44/3 6/14/3
f 34/26/5 17/29/5 39/21/5 44/20/5
f 15/28/2 41/9/2 39/12/2 17/77/2
f 70/78/1 63/79/1 69/80/1 84/81/1
f 49/82/2 52/83/2 45/84/2 47/85/2
f 85/86/2 83/87/2 51/88/2 49/89/2
f 48/90/3 53/91/3 50/92/3
f 80/93/22 74/94/22 47/95/22 45/96/22
f 49/82/2 51/88/2 52/83/2
f 88/97/5 64/98/5 51/99/5 83/100/5
f 64/98/23 75/101/23 52/102/23 51/99/23
f 78/103/9 61/104/9 59/105/9 79/106/9
f 55/107/24 57/108/24 76/109/24 77/110/24
f 53/111/9 55/107/9 77/110/9 75/101/9
f 62/112/3 57/113/3 55/114/3 53/91/3
f 80/93/7 76/109/7 57/108/7 62/115/7
f 52/83/2 54/116/2 56/117/2 45/84/2
f 82/118/3 86/119/3 60/120/3 58/121/3
f 53/91/3 48/122/3 46/123/3 62/112/3
f 73/124/25 81/125/25 65/126/25 72/127/25
f 71/128/11 65/126/11 67/129/11
f 46/130/26 67/131/26 66/132/26 74/94/26
f 79/133/27 73/124/27 72/127/27 58/134/27
f 68/135/1 63/136/1 70/137/1
f 48/122/14 71/128/14 67/129/14 46/123/14
f 82/118/14 87/138/14 71/139/14 48/90/14
f 66/132/28 81/140/28 63/141/28 68/142/28
f 47/85/2 68/135/2 70/137/2 49/82/2
f 72/143/11 65/144/11 71/139/11 87/138/11
f 75/101/9 77/110/9 54/145/9 52/102/9
f 85/86/2 84/81/2 69/80/2 59/105/2
f 74/94/29 66/132/29 68/142/29 47/95/29
f 67/131/30 65/146/30 81/140/30 66/132/30
f 59/147/31 69/148/31 73/124/31 79/133/31
f 69/148/32 63/149/32 81/125/32 73/124/32
f 45/96/7 56/150/7 76/109/7 80/93/7
f 54/145/24 77/110/24 76/109/24 56/150/24
f 60/151/9 78/103/9 79/106/9 58/134/9
f 50/152/23 53/111/23 75/101/23 64/98/23
f 86/153/5 50/152/5 64/98/5 88/97/5
f 62/115/33 46/130/33 74/94/33 80/93/33
f 60/151/5 86/153/5 88/97/5 78/103/5
f 49/89/2 70/78/2 84/81/2 85/86/2
f 58/121/14 72/143/14 87/138/14 82/118/14
f 48/90/3 50/92/3 86/119/3 82/118/3
f 78/103/5 88/97/5 83/100/5 61/104/5
f 59/105/2 61/154/2 83/87/2 85/86/2
