# Blender v2.91.0 OBJ File: 'Assignment 1 assets.blend'
# www.blender.org
mtllib table.mtl
o table_Cube.002
v -2.973522 -0.242500 4.546359
v -2.789206 -0.398414 4.362042
v -2.973522 -0.242500 -2.837531
v -2.789206 -0.398414 -2.653215
v 4.410367 -0.242500 4.546359
v 4.226051 -0.398414 4.362042
v 4.410367 -0.242500 -2.837531
v 4.226051 -0.398414 -2.653215
v 1.949071 -0.242500 -2.837531
v -0.512226 -0.242500 -2.837531
v -1.612571 -0.398414 -2.653215
v 3.049416 -0.398414 -2.653215
v -0.512226 -0.242500 4.546359
v 1.949071 -0.242500 4.546359
v 3.049416 -0.398414 4.362042
v -1.612571 -0.398414 4.362042
v -2.973522 -0.242500 -0.376235
v -2.973522 -0.242500 2.085062
v -2.789206 -0.398414 3.185407
v -2.789206 -0.398414 -1.476580
v 4.410367 -0.242500 2.085062
v 4.410367 -0.242500 -0.376235
v 4.226051 -0.398414 -1.476580
v 4.226051 -0.398414 3.185407
v 3.049416 -0.398414 -1.476580
v 3.049416 -0.398414 3.185407
v -1.612571 -0.398414 -1.476580
v -1.612571 -0.398414 3.185407
v -0.512226 -0.242500 -0.376235
v -0.512226 -0.242500 2.085062
v 1.949071 -0.242500 -0.376235
v 1.949071 -0.242500 2.085062
v -2.973522 -0.398414 -0.376235
v -2.973522 -0.398414 -2.837531
v 1.949071 -0.398414 -2.837531
v 4.410367 -0.398414 -2.837531
v 4.410367 -0.398414 2.085062
v 4.410367 -0.398414 4.546359
v -0.512226 -0.398414 4.546359
v -2.973522 -0.398414 4.546359
v -0.512226 -0.398414 -2.837531
v 1.949071 -0.398414 4.546359
v 1.949071 -0.398414 2.085062
v -0.512226 -0.398414 2.085062
v -2.973522 -0.398414 2.085062
v 4.410367 -0.398414 -0.376235
v 1.949071 -0.398414 -0.376235
v -0.512226 -0.398414 -0.376235
v -2.789206 -0.881652 -1.476580
v -2.789206 -0.881652 -2.653215
v 3.049416 -0.881652 -2.653215
v 4.226051 -0.881652 -2.653215
v 4.226051 -0.881652 3.185407
v 4.226051 -0.881652 4.362042
v -1.612571 -0.881652 4.362042
v -2.789206 -0.881652 4.362042
v -1.612571 -0.881652 -2.653215
v 3.049416 -0.881652 4.362042
v 3.049416 -0.881652 3.185407
v -1.612571 -0.881652 3.185407
v -2.789206 -0.881652 3.185407
v 4.226051 -0.881652 -1.476580
v 3.049416 -0.881652 -1.476580
v -1.612571 -0.881652 -1.476580
vt 0.375000 0.166667
vt 0.375000 0.250000
vt 0.625000 0.250000
vt 0.625000 0.166667
vt 0.375000 0.416667
vt 0.375000 0.500000
vt 0.625000 0.500000
vt 0.625000 0.416667
vt 0.375000 0.666667
vt 0.375000 0.750000
vt 0.625000 0.750000
vt 0.625000 0.666667
vt 0.375000 0.916667
vt 0.375000 1.000000
vt 0.625000 1.000000
vt 0.625000 0.916667
vt 0.291667 0.666667
vt 0.291667 0.750000
vt 0.850127 0.691539
vt 0.850127 0.691539
vt 0.850127 0.725127
vt 0.850127 0.725127
vt 0.816539 0.691539
vt 0.816539 0.691539
vt 0.708333 0.666667
vt 0.708333 0.750000
vt 0.791667 0.750000
vt 0.791667 0.666667
vt 0.125000 0.666667
vt 0.125000 0.750000
vt 0.208333 0.750000
vt 0.208333 0.666667
vt 0.375000 0.833333
vt 0.625000 0.833333
vt 0.375000 0.333333
vt 0.625000 0.333333
vt 0.208333 0.500000
vt 0.208333 0.583333
vt 0.291667 0.583333
vt 0.291667 0.500000
vt 0.125000 0.500000
vt 0.125000 0.583333
vt 0.708333 0.500000
vt 0.708333 0.583333
vt 0.791667 0.583333
vt 0.791667 0.500000
vt 0.850127 0.524873
vt 0.850127 0.524873
vt 0.850127 0.558460
vt 0.850127 0.558460
vt 0.625000 0.583333
vt 0.816539 0.725127
vt 0.816539 0.725127
vt 0.875000 0.666667
vt 0.875000 0.583333
vt 0.375000 0.583333
vt 0.375000 0.000000
vt 0.375000 0.083333
vt 0.625000 0.083333
vt 0.625000 0.000000
vt 0.875000 0.500000
vt 0.683460 0.524873
vt 0.649873 0.524873
vt 0.649873 0.691539
vt 0.649873 0.725127
vt 0.875000 0.750000
vt 0.816539 0.524873
vt 0.683460 0.725127
vt 0.683460 0.691539
vt 0.649873 0.558460
vt 0.683460 0.558460
vt 0.816539 0.558460
vt 0.649873 0.691539
vt 0.649873 0.725127
vt 0.683460 0.725127
vt 0.683460 0.691539
vt 0.649873 0.524873
vt 0.649873 0.558460
vt 0.683460 0.558460
vt 0.683460 0.524873
vt 0.816539 0.524873
vt 0.816539 0.558460
vn -1.0000 0.0000 0.0000
vn 0.0000 0.0000 -1.0000
vn 1.0000 0.0000 0.0000
vn 0.0000 0.0000 1.0000
vn 0.0000 1.0000 0.0000
vn 0.0000 -1.0000 0.0000
usemtl None
s off
f 17/1/1 3/2/1 34/3/1 33/4/1
f 9/5/2 7/6/2 36/7/2 35/8/2
f 21/9/3 5/10/3 38/11/3 37/12/3
f 13/13/4 1/14/4 40/15/4 39/16/4
f 32/17/5 14/18/5 5/10/5 21/9/5
f 19/19/1 61/20/1 56/21/1 2/22/1
f 28/23/2 60/24/2 61/20/2 19/19/2
f 43/25/6 42/26/6 39/27/6 44/28/6
f 18/29/5 1/30/5 13/31/5 30/32/5
f 30/32/5 13/31/5 14/18/5 32/17/5
f 5/10/4 14/33/4 42/34/4 38/11/4
f 14/33/4 13/13/4 39/16/4 42/34/4
f 3/2/2 10/35/2 41/36/2 34/3/2
f 10/35/2 9/5/2 35/8/2 41/36/2
f 10/37/5 29/38/5 31/39/5 9/40/5
f 29/38/5 30/32/5 32/17/5 31/39/5
f 3/41/5 17/42/5 29/38/5 10/37/5
f 17/42/5 18/29/5 30/32/5 29/38/5
f 35/43/6 47/44/6 48/45/6 41/46/6
f 47/44/6 43/25/6 44/28/6 48/45/6
f 4/47/1 50/48/1 49/49/1 20/50/1
f 46/51/6 37/12/6 43/25/6 47/44/6
f 16/52/3 55/53/3 60/24/3 28/23/3
f 48/45/6 44/28/6 45/54/6 33/55/6
f 9/40/5 31/39/5 22/56/5 7/6/5
f 31/39/5 32/17/5 21/9/5 22/56/5
f 7/6/3 22/56/3 46/51/3 36/7/3
f 22/56/3 21/9/3 37/12/3 46/51/3
f 1/57/1 18/58/1 45/59/1 40/60/1
f 18/58/1 17/1/1 33/4/1 45/59/1
f 20/50/6 33/55/6 34/61/6 4/47/6
f 12/62/6 35/43/6 36/7/6 8/63/6
f 24/64/6 37/12/6 38/11/6 6/65/6
f 16/52/6 39/27/6 40/66/6 2/22/6
f 4/47/6 34/61/6 41/46/6 11/67/6
f 6/65/6 38/11/6 42/26/6 15/68/6
f 15/68/6 42/26/6 43/25/6 26/69/6
f 28/23/6 44/28/6 39/27/6 16/52/6
f 2/22/6 40/66/6 45/54/6 19/19/6
f 8/63/6 36/7/6 46/51/6 23/70/6
f 25/71/6 47/44/6 35/43/6 12/62/6
f 11/67/6 41/46/6 48/45/6 27/72/6
f 23/70/6 46/51/6 47/44/6 25/71/6
f 26/69/6 43/25/6 37/12/6 24/64/6
f 27/72/6 48/45/6 33/55/6 20/50/6
f 19/19/6 45/54/6 44/28/6 28/23/6
f 60/24/6 55/53/6 56/21/6 61/20/6
f 53/73/6 54/74/6 58/75/6 59/76/6
f 52/77/6 62/78/6 63/79/6 51/80/6
f 57/81/6 64/82/6 49/49/6 50/48/6
f 8/63/2 52/77/2 51/80/2 12/62/2
f 23/70/3 62/78/3 52/77/3 8/63/3
f 6/65/3 54/74/3 53/73/3 24/64/3
f 12/62/1 51/80/1 63/79/1 25/71/1
f 2/22/4 56/21/4 55/53/4 16/52/4
f 27/72/3 64/82/3 57/81/3 11/67/3
f 11/67/2 57/81/2 50/48/2 4/47/2
f 25/71/4 63/79/4 62/78/4 23/70/4
f 15/68/4 58/75/4 54/74/4 6/65/4
f 24/64/2 53/73/2 59/76/2 26/69/2
f 26/69/1 59/76/1 58/75/1 15/68/1
f 20/50/4 49/49/4 64/82/4 27/72/4
